<?xml version="1.0" encoding="UTF-8" standalone="no"?>
<svg
   xmlns:dc="http://purl.org/dc/elements/1.1/"
   xmlns:cc="http://creativecommons.org/ns#"
   xmlns:rdf="http://www.w3.org/1999/02/22-rdf-syntax-ns#"
   xmlns:svg="http://www.w3.org/2000/svg"
   xmlns="http://www.w3.org/2000/svg"
   xmlns:sodipodi="http://sodipodi.sourceforge.net/DTD/sodipodi-0.dtd"
   xmlns:inkscape="http://www.inkscape.org/namespaces/inkscape"
   viewBox="0 0 1200 600"
   height="600"
   width="1200"
   xml:space="preserve"
   id="svg2"
   version="1.1"
   inkscape:version="0.91 r13725"
   sodipodi:docname="as_vert_cor.svg"><sodipodi:namedview
     pagecolor="#ffffff"
     bordercolor="#666666"
     borderopacity="1"
     objecttolerance="10"
     gridtolerance="10"
     guidetolerance="10"
     inkscape:pageopacity="0"
     inkscape:pageshadow="2"
     inkscape:window-width="2560"
     inkscape:window-height="1017"
     id="namedview19"
     showgrid="false"
     inkscape:zoom="0.90509668"
     inkscape:cx="702.46583"
     inkscape:cy="294.58828"
     inkscape:window-x="-8"
     inkscape:window-y="-8"
     inkscape:window-maximized="1"
     inkscape:current-layer="svg2" /><metadata
     id="metadata8"><rdf:RDF><cc:Work
         rdf:about=""><dc:format>image/svg+xml</dc:format><dc:type
           rdf:resource="http://purl.org/dc/dcmitype/StillImage" /><dc:title></dc:title></cc:Work></rdf:RDF></metadata><defs
     id="defs6"><clipPath
       id="clipPath20"
       clipPathUnits="userSpaceOnUse"><path
         id="path18"
         d="m 0,0 510,0 0,469.75 -510,0 z"
         inkscape:connector-curvature="0" /></clipPath></defs><g
     id="g3385"
     transform="matrix(1.8928445,0,0,1.8928445,-14.067295,-13.76717)"><path
       inkscape:connector-curvature="0"
       d="m 7.4318643,324.25651 633.9664557,0 0,-316.98323 -633.9664557,0 z"
       style="fill:#ffffff;fill-opacity:1;fill-rule:nonzero;stroke:none"
       id="path22" /><path
       inkscape:connector-curvature="0"
       d="m 543.63956,122.52025 c -31.99939,23.06828 -66.98325,43.06013 -104.68075,59.36796 -18.62882,8.05762 -38.70764,13.629 -59.85377,16.27428 -15.03676,1.87867 -30.34934,2.82421 -45.88061,2.82421 l 0,123.26981 308.17389,0 0,-272.32649 -97.75007,70.60017 -0.009,-0.01"
       style="fill:#008940;fill-opacity:1;fill-rule:nonzero;stroke:none"
       id="path30" /><path
       inkscape:connector-curvature="0"
       d="m 105.18666,122.52025 c 32.00957,23.06828 66.98846,43.06013 104.69093,59.36796 18.63255,8.05762 38.70143,13.629 59.8575,16.27428 15.02681,1.87867 30.3394,2.82421 45.88061,2.82421 l 0,123.26981 -308.1838357,0 0,-272.32649 97.7499457,70.60017 0.005,-0.01"
       style="fill:#008940;fill-opacity:1;fill-rule:nonzero;stroke:none"
       id="path32" /><path
       inkscape:connector-curvature="0"
       d="m 333.22443,7.27328 0,176.09972 c 14.78825,0 29.37894,-0.912 43.69132,-2.6838 l 0,0 c 19.4526,-2.43655 37.9112,-7.5569 55.04405,-14.96345 36.51712,-15.79343 70.37528,-35.14415 101.36575,-57.48929 l 0,0.005 108.07277,-78.05021 0,-22.91794 -308.17389,0"
       style="fill:#133e79;fill-opacity:1;fill-rule:nonzero;stroke:none"
       id="path34" /><path
       inkscape:connector-curvature="0"
       d="m 315.6157,7.27328 0,176.09972 c -14.80316,0 -29.3777,-0.912 -43.69132,-2.6838 l -0.005,0 c -19.45757,-2.43655 -37.9199,-7.5569 -55.05275,-14.96345 -36.50842,-15.79343 -70.36658,-35.14415 -101.36625,-57.48929 l 0,0.005 -108.0685457,-78.05021 0,-22.91794 308.1838357,0"
       style="fill:#133e79;fill-opacity:1;fill-rule:nonzero;stroke:none"
       id="path36" /></g></svg>