<?xml version="1.0" encoding="UTF-8" standalone="no"?>
<svg
   version="1.1"
   width="1453.8462"
   height="1050"
   id="svg10"
   xmlns="http://www.w3.org/2000/svg"
   xmlns:svg="http://www.w3.org/2000/svg">
  <defs
     id="defs14" />
  <g
     id="g5305"
     transform="matrix(8.0769231,0,0,8.0769231,0,-7430.7691)">
    <rect
       width="180"
       height="130"
       fill="#ffffff"
       id="rect2"
       x="0"
       y="920"
       style="fill:#ffffff;stroke-width:0.12189" />
    <rect
       width="58"
       height="65"
       x="60.666664"
       y="952.19043"
       fill="#00923f"
       id="rect4"
       style="fill:#00b241;fill-opacity:1;stroke-width:0.118078" />
    <path
       id="path3701"
       style="fill:#feb81c;fill-opacity:1;stroke-width:1.48119;stroke-linecap:round;stroke-linejoin:round;paint-order:markers fill stroke"
       d="M 89.666016,953.69141 82.166016,959.69141 H 86.166016 V 962.49023 L 84.166016,964.08984 V 979.19141 H 72.566406 L 70.964844,981.19141 H 68.166016 V 977.19141 L 62.166016,984.68945 68.166016,992.18945 V 988.19141 H 70.966797 L 72.566406,990.19141 H 84.167969 V 1005.291 L 86.167969,1006.8926 V 1009.6895 H 82.166016 L 89.666016,1015.6895 97.166016,1009.6895 H 93.167969 V 1006.8887 L 95.166016,1005.291 H 95.167969 V 990.18945 H 106.76758 L 108.36914,988.18945 H 111.16602 V 992.18945 L 117.16602,984.69141 111.16602,977.19141 V 981.18945 H 108.36523 L 106.76758,979.19141 V 979.18945 H 95.166016 V 964.08984 L 93.166016,962.49023 V 959.69141 H 97.166016 Z M 89.666016,977.19141 95.166016,982.69141 V 982.6875 L 97.167969,984.68945 93.667969,988.18945 91.667969,990.18945 89.667969,992.18945 86.167969,988.68945 84.167969,986.68945 V 986.69336 L 82.166016,984.69141 86.166016,980.69141 Z" />
  </g>
</svg>
