<?xml version="1.0" encoding="UTF-8"?>
<!DOCTYPE svg PUBLIC "-//W3C//DTD SVG 1.1//EN" "http://www.w3.org/Graphics/SVG/1.1/DTD/svg11.dtd">
<svg xmlns="http://www.w3.org/2000/svg" version="1.1" width="5120px" height="3072px" style="shape-rendering:geometricPrecision; text-rendering:geometricPrecision; image-rendering:optimizeQuality; fill-rule:evenodd; clip-rule:evenodd" xmlns:xlink="http://www.w3.org/1999/xlink">
<g><path style="opacity:1" fill="#fefefe" d="M -0.5,-0.5 C 1706.17,-0.5 3412.83,-0.5 5119.5,-0.5C 5119.5,1023.5 5119.5,2047.5 5119.5,3071.5C 3412.83,3071.5 1706.17,3071.5 -0.5,3071.5C -0.5,2047.5 -0.5,1023.5 -0.5,-0.5 Z"/></g>
<g><path style="opacity:1" fill="#ed161f" d="M 2558.5,757.5 C 2559.38,757.369 2560.04,757.702 2560.5,758.5C 2845.63,1251.92 3130.63,1745.42 3415.5,2239C 2845.17,2239.67 2274.83,2239.67 1704.5,2239C 1989.32,1745.19 2273.98,1251.36 2558.5,757.5 Z"/></g>
<g><path style="opacity:1" fill="#201b1c" d="M 2807.5,794.5 C 2832.7,792.952 2854.53,800.619 2873,817.5C 2890.52,837.933 2894.85,860.933 2886,886.5C 2868.14,928.498 2836.31,950.832 2790.5,953.5C 2770.37,953.599 2753.04,946.766 2738.5,933C 2737.36,932.251 2736.36,932.417 2735.5,933.5C 2728.52,943.128 2724.02,953.795 2722,965.5C 2719.29,980.852 2723.45,993.852 2734.5,1004.5C 2732.96,1006.45 2730.96,1006.95 2728.5,1006C 2718.88,1001.05 2712.05,993.55 2708,983.5C 2700.63,968.547 2698.29,952.88 2701,936.5C 2704.2,924.961 2710.87,915.961 2721,909.5C 2719.33,900.634 2718.5,891.634 2718.5,882.5C 2718.55,865.738 2723.71,850.738 2734,837.5C 2746.52,821.141 2762.36,808.974 2781.5,801C 2790.21,798.488 2798.88,796.321 2807.5,794.5 Z"/></g>
<g><path style="opacity:1" fill="#201b1c" d="M 2231.5,801.5 C 2234.61,801.351 2237.61,801.851 2240.5,803C 2249.03,807.094 2257.03,811.927 2264.5,817.5C 2264,820.339 2262.33,821.672 2259.5,821.5C 2249.35,818.763 2239.02,817.93 2228.5,819C 2216.4,824.691 2211.24,834.191 2213,847.5C 2223.82,869.437 2239.99,874.27 2261.5,862C 2273.93,853.578 2287.27,846.911 2301.5,842C 2332.55,839.94 2354.38,853.106 2367,881.5C 2370.91,905.855 2363.41,926.022 2344.5,942C 2338.8,946.129 2332.47,947.462 2325.5,946C 2317.09,940.601 2308.43,935.601 2299.5,931C 2296.23,929.475 2295.23,927.142 2296.5,924C 2297.5,923.833 2298.5,923.667 2299.5,923.5C 2305.66,925.909 2311.99,927.743 2318.5,929C 2332.43,932.267 2344.27,928.767 2354,918.5C 2361.54,905.931 2361.21,893.597 2353,881.5C 2338.29,867.378 2321.79,864.878 2303.5,874C 2293.01,879.413 2282.67,885.079 2272.5,891C 2259.82,896.95 2247.16,896.95 2234.5,891C 2207.61,877.72 2199.11,856.886 2209,828.5C 2214.51,817.824 2222.01,808.824 2231.5,801.5 Z"/></g>
<g><path style="opacity:1" fill="#fdfdfd" d="M 2826.5,813.5 C 2839.88,811.899 2852.54,814.066 2864.5,820C 2880.41,833.38 2883.91,849.547 2875,868.5C 2863.45,889.719 2846.95,905.886 2825.5,917C 2804.94,929.724 2782.61,935.057 2758.5,933C 2740.08,927.351 2730.41,914.851 2729.5,895.5C 2730.46,885.238 2733.96,875.905 2740,867.5C 2762.96,839.946 2791.79,821.946 2826.5,813.5 Z"/></g>
<g><path style="opacity:1" fill="#201c1d" d="M 2941.5,951.5 C 2943.6,951.201 2945.6,951.534 2947.5,952.5C 2954.06,969.207 2962.89,984.54 2974,998.5C 2976.1,1001.16 2975.6,1003.33 2972.5,1005C 2971.5,1005.67 2970.5,1005.67 2969.5,1005C 2967.04,1001.92 2964.71,998.756 2962.5,995.5C 2960.37,993.883 2958.04,993.383 2955.5,994C 2920.34,1014.08 2885.34,1034.41 2850.5,1055C 2834.33,1068.52 2832.16,1084.02 2844,1101.5C 2854.39,1117.74 2868.56,1122.58 2886.5,1116C 2920.16,1097.51 2953.49,1078.51 2986.5,1059C 2993.83,1052.62 2994.5,1045.45 2988.5,1037.5C 2990.6,1034.02 2993.1,1033.68 2996,1036.5C 3001.24,1047.32 3007.24,1057.66 3014,1067.5C 3016.5,1071.36 3015.83,1074.36 3012,1076.5C 3009.26,1074.42 3007.26,1071.75 3006,1068.5C 3002.66,1065.68 2998.83,1064.85 2994.5,1066C 2990.42,1067.47 2986.42,1069.14 2982.5,1071C 2953.49,1088.17 2924.16,1104.84 2894.5,1121C 2873.11,1132.51 2854.61,1129.01 2839,1110.5C 2828.54,1097.09 2822.71,1081.93 2821.5,1065C 2821.52,1055.6 2824.69,1047.43 2831,1040.5C 2835.55,1036.29 2840.38,1032.45 2845.5,1029C 2878,1010.59 2910.33,991.919 2942.5,973C 2944.05,971.178 2944.71,969.011 2944.5,966.5C 2943.7,962.249 2942.36,958.082 2940.5,954C 2940.74,953.098 2941.08,952.265 2941.5,951.5 Z"/></g>
<g><path style="opacity:1" fill="#201b1c" d="M 2125.5,973.5 C 2177.39,985.577 2229.39,997.077 2281.5,1008C 2289.73,1009.26 2296.73,1006.92 2302.5,1001C 2307.65,1000.6 2308.81,1002.77 2306,1007.5C 2295.77,1021.46 2286.94,1036.29 2279.5,1052C 2276.43,1053.16 2274.77,1052.16 2274.5,1049C 2275.83,1045.35 2277.16,1041.68 2278.5,1038C 2278.1,1036.53 2277.43,1035.19 2276.5,1034C 2271.32,1031.61 2265.99,1029.61 2260.5,1028C 2249.83,1025.5 2239.17,1023 2228.5,1020.5C 2226.97,1020.53 2225.8,1021.2 2225,1022.5C 2219.92,1031.66 2214.59,1040.66 2209,1049.5C 2207.7,1051.36 2207.37,1053.36 2208,1055.5C 2218.56,1066.73 2229.73,1077.23 2241.5,1087C 2243.7,1088.37 2246.03,1088.71 2248.5,1088C 2251.39,1083.44 2255.23,1079.94 2260,1077.5C 2261.26,1077.76 2262.26,1078.43 2263,1079.5C 2263.26,1082.02 2262.59,1084.35 2261,1086.5C 2258,1090.5 2255,1094.5 2252,1098.5C 2248.21,1106.57 2244.04,1114.4 2239.5,1122C 2237.11,1122.3 2235.44,1121.3 2234.5,1119C 2238.63,1111.77 2238.46,1104.6 2234,1097.5C 2197.33,1058.17 2160.67,1018.83 2124,979.5C 2123.25,977.16 2123.75,975.16 2125.5,973.5 Z"/></g>
<g><path style="opacity:1" fill="#f9f9f9" d="M 2160.5,1006.5 C 2178.42,1009.12 2196.09,1012.95 2213.5,1018C 2214.02,1018.56 2214.36,1019.23 2214.5,1020C 2209.96,1028.93 2204.79,1037.43 2199,1045.5C 2186.09,1032.76 2173.26,1019.76 2160.5,1006.5 Z"/></g>
<g><path style="opacity:1" fill="#201b1c" d="M 2065.5,1062.5 C 2070.28,1063.22 2074.61,1065.05 2078.5,1068C 2086.9,1074.06 2095.56,1079.73 2104.5,1085C 2110.14,1088.86 2109.64,1091.36 2103,1092.5C 2097,1091.17 2091,1089.83 2085,1088.5C 2077.89,1089.23 2072.22,1092.56 2068,1098.5C 2064.7,1102.76 2062.2,1107.42 2060.5,1112.5C 2060.53,1114.03 2061.2,1115.2 2062.5,1116C 2102.5,1139.33 2142.5,1162.67 2182.5,1186C 2185.96,1186.82 2189.3,1186.48 2192.5,1185C 2195.17,1182 2197.83,1179 2200.5,1176C 2202.37,1175.29 2203.87,1175.79 2205,1177.5C 2205.55,1180.42 2204.88,1183.09 2203,1185.5C 2192.44,1197.94 2184.44,1211.94 2179,1227.5C 2176.72,1231.04 2174.05,1231.37 2171,1228.5C 2172.5,1223.9 2173.66,1219.06 2174.5,1214C 2174.33,1212.5 2174.17,1211 2174,1209.5C 2133.43,1185.27 2092.59,1161.43 2051.5,1138C 2049.1,1137.19 2046.76,1137.35 2044.5,1138.5C 2041.81,1142.55 2039.64,1146.89 2038,1151.5C 2037.33,1155.83 2037.33,1160.17 2038,1164.5C 2041.31,1173.11 2045.14,1181.44 2049.5,1189.5C 2048.87,1191.3 2047.7,1192.63 2046,1193.5C 2033.34,1183.01 2021.51,1171.67 2010.5,1159.5C 2010.71,1158.91 2011.04,1158.41 2011.5,1158C 2017.64,1159.79 2022.81,1158.29 2027,1153.5C 2039.83,1130.5 2053.16,1107.84 2067,1085.5C 2068.27,1082.53 2069.43,1079.53 2070.5,1076.5C 2068.74,1071.79 2067.07,1067.12 2065.5,1062.5 Z"/></g>
<g><path style="opacity:1" fill="#211c1d" d="M 2883.5,1165.5 C 2885.2,1165.34 2886.87,1165.51 2888.5,1166C 2892.1,1172.97 2897.77,1177.31 2905.5,1179C 2965.82,1181.07 3026.16,1182.74 3086.5,1184C 3088.56,1184.31 3090.56,1184.81 3092.5,1185.5C 3093.61,1186.72 3093.78,1188.06 3093,1189.5C 3089.73,1190.95 3086.89,1192.95 3084.5,1195.5C 3094.33,1211.83 3104.17,1228.17 3114,1244.5C 3114.67,1246.17 3114.67,1247.83 3114,1249.5C 3105.04,1256.06 3095.54,1261.73 3085.5,1266.5C 3082.09,1265.42 3081.59,1263.42 3084,1260.5C 3092.41,1251.5 3095.41,1240.83 3093,1228.5C 3090.67,1220.17 3087,1212.51 3082,1205.5C 3079.35,1202.75 3076.19,1201.59 3072.5,1202C 3055.93,1211.11 3039.93,1220.94 3024.5,1231.5C 3029.43,1241.93 3035.76,1251.43 3043.5,1260C 3049.39,1263.09 3055.39,1263.26 3061.5,1260.5C 3063.85,1260.55 3065.19,1261.72 3065.5,1264C 3052.36,1271.4 3039.36,1279.07 3026.5,1287C 3023.44,1289.03 3020.11,1290.2 3016.5,1290.5C 3016.3,1288.01 3016.8,1285.68 3018,1283.5C 3024.46,1278.22 3028.63,1271.55 3030.5,1263.5C 3029.23,1258.96 3027.4,1254.62 3025,1250.5C 3021.82,1245.46 3018.65,1240.46 3015.5,1235.5C 2997.11,1245.74 2979.11,1256.57 2961.5,1268C 2957.58,1271.33 2956.08,1275.49 2957,1280.5C 2960.71,1288.77 2965.54,1296.27 2971.5,1303C 2974.72,1305.78 2978.38,1307.78 2982.5,1309C 2992.13,1310.12 3001.8,1310.79 3011.5,1311C 3012.75,1312.49 3012.75,1313.99 3011.5,1315.5C 2999.93,1321.47 2987.93,1325.97 2975.5,1329C 2974.33,1327.83 2973.17,1326.67 2972,1325.5C 2965.73,1313.29 2959.73,1300.96 2954,1288.5C 2948.48,1282.8 2944.48,1276.13 2942,1268.5C 2939.58,1264.66 2936.91,1260.99 2934,1257.5C 2930.66,1250.65 2927.16,1243.81 2923.5,1237C 2924.41,1234.68 2926.08,1234.01 2928.5,1235C 2931.5,1238.67 2934.5,1242.33 2937.5,1246C 2940.5,1246.67 2943.5,1246.67 2946.5,1246C 2960.24,1239.14 2973.24,1231.31 2985.5,1222.5C 2980.91,1213.4 2976.07,1204.4 2971,1195.5C 2969.83,1193 2968,1191.17 2965.5,1190C 2948.15,1189.25 2930.81,1189.58 2913.5,1191C 2910.77,1191.53 2909.44,1193.19 2909.5,1196C 2911.12,1200.03 2911.62,1204.19 2911,1208.5C 2908.12,1210.03 2905.79,1209.36 2904,1206.5C 2898.63,1193.16 2891.63,1180.83 2883,1169.5C 2882.42,1168.07 2882.59,1166.74 2883.5,1165.5 Z"/></g>
<g><path style="opacity:1" fill="#fcfcfc" d="M 2981.5,1189.5 C 3001.51,1189.17 3021.51,1189.5 3041.5,1190.5C 3027.38,1200.31 3012.55,1208.98 2997,1216.5C 2995.29,1216.56 2993.96,1215.89 2993,1214.5C 2988.83,1206.83 2984.67,1199.17 2980.5,1191.5C 2980.86,1190.82 2981.2,1190.15 2981.5,1189.5 Z"/></g>
<g><path style="opacity:1" fill="#201b1c" d="M 1987.5,1245.5 C 2012.18,1244.41 2029.35,1255.08 2039,1277.5C 2041.13,1283.74 2040.96,1289.9 2038.5,1296C 2039.33,1297.78 2040.33,1297.78 2041.5,1296C 2047.17,1295.33 2052.83,1295.33 2058.5,1296C 2080,1300.21 2101.66,1302.55 2123.5,1303C 2127.07,1301.43 2130.07,1299.1 2132.5,1296C 2134.11,1295.28 2135.61,1295.45 2137,1296.5C 2137.26,1299.02 2136.59,1301.35 2135,1303.5C 2129.37,1311.15 2124.54,1319.31 2120.5,1328C 2116.5,1328.67 2112.5,1328.67 2108.5,1328C 2086.04,1324.55 2063.54,1321.39 2041,1318.5C 2032.96,1318.21 2028.12,1322.04 2026.5,1330C 2026.59,1331.11 2026.92,1332.11 2027.5,1333C 2045.5,1343 2063.5,1353 2081.5,1363C 2083.83,1363.67 2086.17,1363.67 2088.5,1363C 2091.83,1361 2094.5,1358.33 2096.5,1355C 2102.08,1353.74 2103.91,1355.91 2102,1361.5C 2091.19,1375.62 2082.02,1390.79 2074.5,1407C 2072.43,1407.54 2070.6,1407.04 2069,1405.5C 2069.73,1400.63 2070.89,1395.8 2072.5,1391C 2072.48,1387.97 2071.15,1385.63 2068.5,1384C 2030.17,1361.67 1991.83,1339.33 1953.5,1317C 1950.26,1315.63 1946.93,1315.3 1943.5,1316C 1940.59,1319.15 1937.93,1322.48 1935.5,1326C 1933.3,1326.82 1931.47,1326.32 1930,1324.5C 1929.74,1321.98 1930.41,1319.65 1932,1317.5C 1935.25,1313.34 1938.25,1309.01 1941,1304.5C 1948.01,1291.14 1955.01,1277.8 1962,1264.5C 1968.33,1255.1 1976.83,1248.77 1987.5,1245.5 Z"/></g>
<g><path style="opacity:1" fill="#fcfcfc" d="M 1978.5,1267.5 C 1996.07,1267.37 2010.91,1273.7 2023,1286.5C 2027.74,1292.39 2029.41,1299.06 2028,1306.5C 2025.74,1312.86 2022.57,1318.69 2018.5,1324C 2015.22,1324.74 2012.22,1324.08 2009.5,1322C 1996,1314.08 1982.33,1306.41 1968.5,1299C 1960.83,1295.17 1958.67,1289.34 1962,1281.5C 1966.17,1275.15 1971.67,1270.49 1978.5,1267.5 Z"/></g>
<g><path style="opacity:1" fill="#201b1c" d="M 1891.5,1388.5 C 1894.79,1388.26 1897.79,1389.09 1900.5,1391C 1906.67,1394.92 1913,1398.59 1919.5,1402C 1921.85,1403.01 1923.51,1404.68 1924.5,1407C 1923.96,1408.95 1922.62,1409.78 1920.5,1409.5C 1903.33,1405.72 1889.83,1411.05 1880,1425.5C 1875.97,1430.73 1873.13,1436.57 1871.5,1443C 1871.63,1444.63 1872.13,1446.13 1873,1447.5C 1876.55,1450.72 1880.39,1453.55 1884.5,1456C 1897.54,1463.18 1910.54,1470.35 1923.5,1477.5C 1925.03,1477.47 1926.2,1476.8 1927,1475.5C 1932.14,1466.89 1936.47,1457.89 1940,1448.5C 1940.75,1440.53 1937.75,1434.2 1931,1429.5C 1930.6,1424.35 1932.77,1423.19 1937.5,1426C 1951.28,1435.98 1965.78,1444.81 1981,1452.5C 1981.68,1453.78 1981.52,1454.95 1980.5,1456C 1973.66,1455.9 1966.83,1455.4 1960,1454.5C 1956.14,1454.15 1952.64,1454.98 1949.5,1457C 1943.59,1464.67 1938.59,1472.84 1934.5,1481.5C 1934.46,1484.3 1935.8,1486.13 1938.5,1487C 1955,1496.08 1971.33,1505.41 1987.5,1515C 1991.71,1517.65 1996.04,1517.98 2000.5,1516C 2011.35,1505.81 2016.85,1493.31 2017,1478.5C 2013.89,1468.94 2009.22,1460.27 2003,1452.5C 2001.83,1448.33 2003.33,1446.83 2007.5,1448C 2017.33,1455.17 2027.17,1462.33 2037,1469.5C 2037.51,1473.51 2036.51,1477.18 2034,1480.5C 2015.88,1506.63 1999.38,1533.8 1984.5,1562C 1981.65,1562.66 1979.98,1561.49 1979.5,1558.5C 1980.39,1555.72 1981.56,1553.05 1983,1550.5C 1983.67,1547.5 1983.67,1544.5 1983,1541.5C 1979.43,1538.3 1975.6,1535.47 1971.5,1533C 1935.5,1512.33 1899.5,1491.67 1863.5,1471C 1856,1467.82 1851,1470.15 1848.5,1478C 1842.12,1479.95 1840.29,1477.78 1843,1471.5C 1860.19,1444.46 1876.35,1416.8 1891.5,1388.5 Z"/></g>
<g><path style="opacity:1" fill="#201b1c" d="M 3175.5,1396.5 C 3202.15,1395.41 3219.99,1407.41 3229,1432.5C 3231.11,1439.03 3231.78,1445.69 3231,1452.5C 3223.61,1459.11 3215.44,1464.61 3206.5,1469C 3201.9,1470.58 3200.07,1469.08 3201,1464.5C 3208.64,1456.2 3214.64,1446.87 3219,1436.5C 3219.67,1426.49 3215.84,1418.66 3207.5,1413C 3200.77,1409.45 3193.77,1408.78 3186.5,1411C 3175.02,1414.81 3168.19,1422.64 3166,1434.5C 3165.92,1450.88 3165.26,1467.21 3164,1483.5C 3158.87,1503.3 3146.7,1516.8 3127.5,1524C 3090.93,1533.11 3067.09,1519.61 3056,1483.5C 3055.33,1477.17 3055.33,1470.83 3056,1464.5C 3057.33,1462.5 3058.67,1460.5 3060,1458.5C 3069.22,1453.47 3078.38,1448.31 3087.5,1443C 3089.5,1442.33 3091.5,1442.33 3093.5,1443C 3094.55,1444.39 3094.72,1445.89 3094,1447.5C 3083.85,1453.99 3076.18,1462.65 3071,1473.5C 3064.66,1492.83 3070.82,1506.33 3089.5,1514C 3112.6,1516.04 3127.1,1505.87 3133,1483.5C 3134.18,1468.86 3134.85,1454.2 3135,1439.5C 3136.61,1426.58 3142.44,1416.08 3152.5,1408C 3159.71,1403.06 3167.38,1399.23 3175.5,1396.5 Z"/></g>
<g><path style="opacity:1" fill="#201b1c" d="M 3271.5,1518.5 C 3272.82,1518.33 3273.99,1518.66 3275,1519.5C 3289.48,1548.48 3305.48,1576.48 3323,1603.5C 3323.67,1605.17 3323.67,1606.83 3323,1608.5C 3313.91,1614.63 3304.41,1620.13 3294.5,1625C 3290.91,1625.61 3289.75,1624.11 3291,1620.5C 3302.72,1609.98 3305.72,1597.31 3300,1582.5C 3297.39,1574.1 3292.89,1566.94 3286.5,1561C 3280.3,1560.62 3274.63,1562.29 3269.5,1566C 3257.33,1573.59 3245,1580.92 3232.5,1588C 3231.43,1588.74 3230.76,1589.74 3230.5,1591C 3235.36,1600.52 3241.03,1609.52 3247.5,1618C 3249.12,1618.62 3250.45,1619.62 3251.5,1621C 3257.56,1622.04 3263.4,1621.54 3269,1619.5C 3272.25,1620.53 3273.09,1622.53 3271.5,1625.5C 3255.88,1632.97 3240.88,1641.47 3226.5,1651C 3222.33,1652.17 3220.83,1650.67 3222,1646.5C 3226.38,1641.79 3230.38,1636.79 3234,1631.5C 3235.46,1627.26 3235.79,1622.93 3235,1618.5C 3231.92,1612.01 3228.59,1605.68 3225,1599.5C 3223.61,1597.77 3221.94,1596.44 3220,1595.5C 3200.02,1606.66 3180.35,1618.32 3161,1630.5C 3159.52,1633.7 3159.18,1637.04 3160,1640.5C 3163.54,1649.77 3168.71,1657.93 3175.5,1665C 3179.44,1667.8 3183.78,1669.8 3188.5,1671C 3197.5,1671.33 3206.5,1671.67 3215.5,1672C 3217.59,1672.95 3217.93,1674.29 3216.5,1676C 3205.62,1681.27 3194.62,1686.27 3183.5,1691C 3181.83,1691.67 3180.17,1691.67 3178.5,1691C 3167.13,1669.75 3155.63,1648.59 3144,1627.5C 3138.45,1618.64 3132.95,1609.8 3127.5,1601C 3128.23,1597.64 3130.23,1596.31 3133.5,1597C 3135.46,1599.75 3137.29,1602.58 3139,1605.5C 3140.59,1607.3 3142.59,1608.3 3145,1608.5C 3150.44,1607.03 3155.61,1604.86 3160.5,1602C 3196.67,1580.75 3233,1559.75 3269.5,1539C 3271.03,1537.35 3271.7,1535.35 3271.5,1533C 3271.23,1529.3 3270.23,1525.8 3268.5,1522.5C 3268.79,1520.56 3269.79,1519.22 3271.5,1518.5 Z"/></g>
<g><path style="opacity:1" fill="#201b1c" d="M 1811.5,1558.5 C 1826.88,1558.46 1839.71,1564.12 1850,1575.5C 1851.61,1578.38 1852.94,1581.38 1854,1584.5C 1854.33,1591.17 1854.67,1597.83 1855,1604.5C 1871.69,1587.28 1890.52,1584.78 1911.5,1597C 1934.69,1611.91 1941.53,1632.41 1932,1658.5C 1923.93,1673.9 1914.26,1688.24 1903,1701.5C 1899.02,1709.77 1894.85,1717.94 1890.5,1726C 1888.1,1726.63 1886.26,1725.8 1885,1723.5C 1885.53,1719.73 1886.7,1716.07 1888.5,1712.5C 1887.64,1708.61 1885.64,1705.45 1882.5,1703C 1843.83,1681 1805.17,1659 1766.5,1637C 1764.5,1636.33 1762.5,1636.33 1760.5,1637C 1757.49,1640.83 1755.16,1645 1753.5,1649.5C 1748.02,1650.5 1746.18,1648.16 1748,1642.5C 1756.59,1621.32 1767.25,1601.32 1780,1582.5C 1788.33,1571.44 1798.83,1563.44 1811.5,1558.5 Z"/></g>
<g><path style="opacity:1" fill="#fcfcfc" d="M 1798.5,1581.5 C 1814.64,1580.49 1827.8,1586.16 1838,1598.5C 1842.82,1609.6 1842.48,1620.6 1837,1631.5C 1834.87,1635.59 1832.37,1639.42 1829.5,1643C 1827.03,1643.71 1824.7,1643.37 1822.5,1642C 1809,1633.75 1795.33,1625.75 1781.5,1618C 1776.4,1615.24 1774.56,1611.07 1776,1605.5C 1780.58,1594.61 1788.08,1586.61 1798.5,1581.5 Z"/></g>
<g><path style="opacity:1" fill="#fcfcfc" d="M 1867.5,1613.5 C 1888.65,1612.66 1905.15,1620.99 1917,1638.5C 1922.71,1654.49 1919.21,1668.33 1906.5,1680C 1901.65,1682.79 1896.65,1683.12 1891.5,1681C 1873.83,1670.83 1856.17,1660.67 1838.5,1650.5C 1837.39,1649.28 1837.22,1647.94 1838,1646.5C 1843.54,1631.47 1853.37,1620.47 1867.5,1613.5 Z"/></g>
<g><path style="opacity:1" fill="#201b1c" d="M 3356.5,1667.5 C 3359.26,1667.74 3361.43,1669.08 3363,1671.5C 3365.06,1676.62 3367.39,1681.62 3370,1686.5C 3379.06,1700.57 3387.73,1714.9 3396,1729.5C 3403.06,1753.56 3395.22,1771.06 3372.5,1782C 3358.73,1788.54 3345.39,1787.87 3332.5,1780C 3331,1778.5 3329.5,1777 3328,1775.5C 3326.61,1780.68 3324.28,1785.34 3321,1789.5C 3307.62,1806.55 3294.62,1823.88 3282,1841.5C 3280.98,1843.7 3280.48,1846.04 3280.5,1848.5C 3281.11,1852.17 3281.28,1855.84 3281,1859.5C 3280.27,1861.16 3279.11,1861.66 3277.5,1861C 3272.83,1851 3267.33,1841.5 3261,1832.5C 3260.33,1830.83 3260.33,1829.17 3261,1827.5C 3276,1808.5 3291,1789.5 3306,1770.5C 3311.22,1763.77 3311.72,1756.77 3307.5,1749.5C 3306.13,1747.88 3304.46,1747.38 3302.5,1748C 3285.17,1758 3267.83,1768 3250.5,1778C 3245.93,1780.63 3244.43,1784.47 3246,1789.5C 3248.17,1792.55 3248.84,1795.88 3248,1799.5C 3245.37,1802.19 3243.03,1801.86 3241,1798.5C 3234.76,1782.29 3226.09,1767.62 3215,1754.5C 3214.2,1749.13 3216.37,1747.13 3221.5,1748.5C 3224.55,1755.75 3229.88,1758.91 3237.5,1758C 3277.28,1734.69 3317.12,1711.53 3357,1688.5C 3357.96,1686.8 3358.46,1684.97 3358.5,1683C 3357.96,1678.7 3356.62,1674.7 3354.5,1671C 3354.98,1669.7 3355.64,1668.53 3356.5,1667.5 Z"/></g>
<g><path style="opacity:1" fill="#201b1c" d="M 1709.5,1702.5 C 1714.33,1701.84 1716.16,1703.84 1715,1708.5C 1709.84,1715.04 1710.34,1720.87 1716.5,1726C 1752.33,1746.41 1788,1767.08 1823.5,1788C 1827.55,1790.28 1831.72,1792.11 1836,1793.5C 1837.97,1793.46 1839.8,1792.96 1841.5,1792C 1844.54,1789.3 1847.2,1786.3 1849.5,1783C 1855.39,1782.64 1856.89,1785.14 1854,1790.5C 1843.61,1805.45 1834.11,1820.95 1825.5,1837C 1822.41,1837.59 1820.75,1836.25 1820.5,1833C 1822.75,1829.01 1824.08,1824.67 1824.5,1820C 1824.65,1817.97 1823.98,1816.3 1822.5,1815C 1782.11,1790.47 1741.11,1766.97 1699.5,1744.5C 1694.42,1746.41 1690.75,1749.91 1688.5,1755C 1683.6,1757.44 1681.44,1755.94 1682,1750.5C 1687.82,1743.52 1693.16,1736.19 1698,1728.5C 1702.12,1719.93 1705.95,1711.26 1709.5,1702.5 Z"/></g>
<g><path style="opacity:1" fill="#fcfcfc" d="M 3368.5,1710.5 C 3372.66,1710.14 3375.83,1711.81 3378,1715.5C 3385.48,1726.7 3385.15,1737.7 3377,1748.5C 3365.04,1761.74 3350.2,1767.57 3332.5,1766C 3322.59,1760.65 3316.75,1752.49 3315,1741.5C 3332.56,1730.48 3350.4,1720.14 3368.5,1710.5 Z"/></g>
<g><path style="opacity:1" fill="#201b1c" d="M 1628.5,1843.5 C 1633.21,1843.47 1634.71,1845.8 1633,1850.5C 1628.18,1856.73 1628.68,1862.23 1634.5,1867C 1672.7,1889.27 1711.04,1911.27 1749.5,1933C 1758.91,1934.21 1765.41,1930.38 1769,1921.5C 1772.09,1915.15 1773.09,1908.48 1772,1901.5C 1769.15,1892.79 1765.48,1884.46 1761,1876.5C 1760.17,1870.1 1762.34,1868.94 1767.5,1873C 1776,1879.5 1784.5,1886 1793,1892.5C 1793.71,1894.97 1793.37,1897.3 1792,1899.5C 1774.27,1924.45 1758.44,1950.62 1744.5,1978C 1742.3,1978.82 1740.47,1978.32 1739,1976.5C 1740.36,1972.04 1741.53,1967.37 1742.5,1962.5C 1742.37,1958.85 1740.7,1956.01 1737.5,1954C 1698.5,1931.67 1659.5,1909.33 1620.5,1887C 1617.7,1886.25 1615.03,1886.58 1612.5,1888C 1610.5,1890.67 1608.5,1893.33 1606.5,1896C 1602.03,1896.7 1600.2,1894.86 1601,1890.5C 1612.74,1876.35 1621.91,1860.68 1628.5,1843.5 Z"/></g>
<g><path style="opacity:1" fill="#201b1c" d="M 3474.5,1866.5 C 3480.11,1865.08 3482.28,1867.08 3481,1872.5C 3448.67,1907.5 3416.33,1942.5 3384,1977.5C 3378.55,1983.61 3373.89,1990.28 3370,1997.5C 3369.58,2002.54 3369.58,2007.54 3370,2012.5C 3368.61,2013.55 3367.11,2013.72 3365.5,2013C 3361.03,2005.89 3357.19,1998.39 3354,1990.5C 3348.67,1982.5 3343.33,1974.5 3338,1966.5C 3336.42,1961.9 3337.92,1960.07 3342.5,1961C 3344.7,1963.23 3346.53,1965.73 3348,1968.5C 3349.35,1970.01 3351.02,1971.01 3353,1971.5C 3355.07,1970.21 3357.24,1969.05 3359.5,1968C 3368.32,1958.21 3377.49,1948.71 3387,1939.5C 3388.4,1937.61 3389.57,1935.61 3390.5,1933.5C 3384.68,1923.2 3378.85,1912.87 3373,1902.5C 3371.94,1901.9 3370.77,1901.57 3369.5,1901.5C 3357.15,1904.51 3344.81,1907.67 3332.5,1911C 3322.21,1913.48 3319.71,1919.31 3325,1928.5C 3326.83,1933.99 3324.99,1936.49 3319.5,1936C 3314,1922.47 3306.84,1909.97 3298,1898.5C 3297.19,1896.42 3297.36,1894.42 3298.5,1892.5C 3299.45,1891.67 3300.45,1891.51 3301.5,1892C 3304.22,1896.38 3307.88,1899.72 3312.5,1902C 3315.5,1902.67 3318.5,1902.67 3321.5,1902C 3372.78,1890.84 3423.78,1879.01 3474.5,1866.5 Z"/></g>
<g><path style="opacity:1" fill="#f9f9f9" d="M 3431.5,1883.5 C 3433.29,1883.21 3434.95,1883.55 3436.5,1884.5C 3424.62,1897.76 3412.62,1910.93 3400.5,1924C 3399.5,1924.67 3398.5,1924.67 3397.5,1924C 3392.87,1916.58 3388.37,1909.08 3384,1901.5C 3383.22,1900.06 3383.39,1898.72 3384.5,1897.5C 3400.35,1893.05 3416.02,1888.38 3431.5,1883.5 Z"/></g>
<g><path style="opacity:1" fill="#211c1d" d="M 2095.5,2269.5 C 2099.82,2269.1 2102.32,2271.1 2103,2275.5C 2104.32,2277.49 2106.15,2278.65 2108.5,2279C 2141.5,2279.67 2174.5,2279.67 2207.5,2279C 2209.61,2278.64 2211.61,2277.97 2213.5,2277C 2214.9,2272.42 2217.9,2269.92 2222.5,2269.5C 2222.67,2278.17 2222.5,2286.84 2222,2295.5C 2221.99,2301.51 2221.16,2307.35 2219.5,2313C 2217.56,2313.74 2215.73,2313.58 2214,2312.5C 2212.23,2306.29 2209.89,2300.29 2207,2294.5C 2204.77,2292.3 2202.27,2290.47 2199.5,2289C 2189.62,2286.67 2179.62,2286.01 2169.5,2287C 2169,2287.5 2168.5,2288 2168,2288.5C 2167.33,2329.5 2167.33,2370.5 2168,2411.5C 2168.33,2416.84 2171.17,2420 2176.5,2421C 2180.17,2421.33 2183.83,2421.67 2187.5,2422C 2190.46,2425.13 2189.79,2427.13 2185.5,2428C 2183.17,2428.17 2180.83,2428.33 2178.5,2428.5C 2161.83,2425.86 2145.17,2425.86 2128.5,2428.5C 2125.05,2429 2122.22,2428 2120,2425.5C 2119.32,2424.22 2119.48,2423.05 2120.5,2422C 2127.75,2422.59 2134.25,2420.76 2140,2416.5C 2140.83,2373.5 2140.67,2330.5 2139.5,2287.5C 2125.59,2283.96 2113.26,2286.79 2102.5,2296C 2098.83,2301 2095.17,2306 2091.5,2311C 2088.28,2313.35 2085.61,2313.01 2083.5,2310C 2087.62,2296.48 2091.62,2282.98 2095.5,2269.5 Z"/></g>
<g><path style="opacity:1" fill="#201b1c" d="M 2317.5,2275.5 C 2320.08,2275.08 2322.25,2275.75 2324,2277.5C 2341.8,2322.58 2359.8,2367.58 2378,2412.5C 2382.63,2418.73 2388.8,2422.23 2396.5,2423C 2397.38,2424.36 2397.71,2425.86 2397.5,2427.5C 2375.49,2427.55 2353.49,2427.55 2331.5,2427.5C 2330.25,2425.99 2330.25,2424.49 2331.5,2423C 2336.87,2422.03 2342.2,2420.86 2347.5,2419.5C 2348.7,2415.14 2348.54,2410.8 2347,2406.5C 2342.89,2395.49 2338.39,2384.65 2333.5,2374C 2318.93,2373.18 2304.43,2373.34 2290,2374.5C 2285.93,2385.38 2282.26,2396.38 2279,2407.5C 2278.33,2411.17 2278.33,2414.83 2279,2418.5C 2279.9,2419.7 2281.07,2420.53 2282.5,2421C 2286.85,2421.57 2291.18,2422.24 2295.5,2423C 2297.16,2424.44 2297.82,2426.28 2297.5,2428.5C 2281.33,2427.49 2265.16,2427.49 2249,2428.5C 2246.83,2428.33 2244.67,2428.17 2242.5,2428C 2241.14,2426.06 2241.47,2424.4 2243.5,2423C 2247.15,2422.23 2250.81,2421.56 2254.5,2421C 2257.1,2420.12 2259.27,2418.62 2261,2416.5C 2280.13,2369.59 2298.97,2322.59 2317.5,2275.5 Z"/></g>
<g><path style="opacity:1" fill="#201b1c" d="M 2681.5,2279.5 C 2719.17,2279.33 2756.83,2279.5 2794.5,2280C 2795.31,2280.31 2795.97,2280.81 2796.5,2281.5C 2797.64,2291.45 2797.81,2301.45 2797,2311.5C 2795.87,2313.21 2794.37,2313.71 2792.5,2313C 2785.4,2297.77 2773.4,2289.44 2756.5,2288C 2748.17,2287.33 2739.83,2287.33 2731.5,2288C 2727.65,2289.52 2725.81,2292.35 2726,2296.5C 2725.33,2311.83 2725.33,2327.17 2726,2342.5C 2726.37,2343.42 2726.87,2344.25 2727.5,2345C 2742.12,2346.46 2756.45,2345.13 2770.5,2341C 2774.02,2337.13 2776.35,2332.63 2777.5,2327.5C 2782.69,2325.52 2784.69,2327.35 2783.5,2333C 2782.22,2346.17 2782.22,2359.34 2783.5,2372.5C 2782.36,2378.16 2779.86,2378.83 2776,2374.5C 2774.2,2366.39 2770.04,2359.89 2763.5,2355C 2757.08,2353.89 2750.58,2353.39 2744,2353.5C 2738.5,2353.67 2733,2353.83 2727.5,2354C 2727,2354.5 2726.5,2355 2726,2355.5C 2725.33,2373.5 2725.33,2391.5 2726,2409.5C 2726.22,2415.72 2729.39,2419.56 2735.5,2421C 2762.7,2426.96 2782.54,2417.8 2795,2393.5C 2798.88,2390.26 2801.38,2390.92 2802.5,2395.5C 2800.65,2406.44 2798.65,2417.28 2796.5,2428C 2759.16,2427.49 2721.82,2427.66 2684.5,2428.5C 2682.07,2428.6 2679.91,2427.93 2678,2426.5C 2677.28,2424.89 2677.45,2423.39 2678.5,2422C 2684.83,2422.22 2690.83,2421.06 2696.5,2418.5C 2697.58,2417.33 2698.42,2416 2699,2414.5C 2699.67,2373.5 2699.67,2332.5 2699,2291.5C 2697.89,2289.19 2696.06,2287.69 2693.5,2287C 2689.38,2286.86 2685.38,2286.19 2681.5,2285C 2680.25,2283.17 2680.25,2281.34 2681.5,2279.5 Z"/></g>
<g><path style="opacity:1" fill="#211c1d" d="M 2860.5,2279.5 C 2875.5,2279.33 2890.5,2279.5 2905.5,2280C 2932.72,2314.21 2959.55,2348.71 2986,2383.5C 2987.01,2384.34 2988.18,2384.67 2989.5,2384.5C 2989.83,2353.82 2989.33,2323.15 2988,2292.5C 2987.29,2290.92 2986.46,2289.42 2985.5,2288C 2980.22,2286.97 2974.88,2286.31 2969.5,2286C 2966.01,2284.52 2965.67,2282.52 2968.5,2280C 2984.83,2279.33 3001.17,2279.33 3017.5,2280C 3019.53,2281.4 3019.86,2283.06 3018.5,2285C 3014.62,2286.19 3010.62,2286.86 3006.5,2287C 3003.57,2288.26 3001.74,2290.43 3001,2293.5C 3000.67,2339.5 3000.33,2385.5 3000,2431.5C 2998.52,2434.08 2996.35,2434.91 2993.5,2434C 2960.55,2391.92 2927.71,2349.76 2895,2307.5C 2893.74,2305.39 2891.9,2304.39 2889.5,2304.5C 2889.08,2340.86 2889.58,2377.19 2891,2413.5C 2891.35,2417.52 2893.52,2420.02 2897.5,2421C 2902.17,2421.33 2906.83,2421.67 2911.5,2422C 2912.83,2423.67 2912.83,2425.33 2911.5,2427C 2908.26,2428.02 2904.92,2428.52 2901.5,2428.5C 2887.46,2427.82 2873.46,2427.49 2859.5,2427.5C 2858.24,2425.65 2858.24,2423.81 2859.5,2422C 2865.09,2422.09 2870.42,2421.09 2875.5,2419C 2877.05,2416.35 2878.22,2413.51 2879,2410.5C 2879.67,2370.83 2879.67,2331.17 2879,2291.5C 2878.53,2290.07 2877.7,2288.9 2876.5,2288C 2871.26,2286.35 2865.93,2285.18 2860.5,2284.5C 2859.33,2282.83 2859.33,2281.17 2860.5,2279.5 Z"/></g>
<g><path style="opacity:1" fill="#211c1d" d="M 2443.5,2279.5 C 2458.74,2279.18 2473.91,2279.51 2489,2280.5C 2502.51,2314.24 2516.68,2347.57 2531.5,2380.5C 2546.2,2347.76 2560.37,2314.76 2574,2281.5C 2574.5,2281 2575,2280.5 2575.5,2280C 2590.21,2279.18 2604.88,2279.35 2619.5,2280.5C 2620.75,2282.01 2620.75,2283.51 2619.5,2285C 2615.62,2286.19 2611.62,2286.86 2607.5,2287C 2605.41,2287.79 2603.58,2288.96 2602,2290.5C 2601.88,2332.55 2603.21,2374.55 2606,2416.5C 2607.73,2418.62 2609.9,2420.12 2612.5,2421C 2616.54,2421.17 2620.54,2421.67 2624.5,2422.5C 2625.95,2424.64 2625.62,2426.48 2623.5,2428C 2621,2428.17 2618.5,2428.33 2616,2428.5C 2599.17,2425.85 2582.33,2425.85 2565.5,2428.5C 2563.11,2428.44 2560.78,2428.11 2558.5,2427.5C 2557.24,2425.65 2557.24,2423.81 2558.5,2422C 2563.23,2421.73 2567.9,2421.06 2572.5,2420C 2574.67,2419.17 2576.17,2417.67 2577,2415.5C 2577.78,2380.46 2576.94,2345.46 2574.5,2310.5C 2558.23,2346.73 2542.73,2383.39 2528,2420.5C 2524.82,2424.42 2521.82,2424.42 2519,2420.5C 2503.87,2383.57 2488.2,2346.9 2472,2310.5C 2471.09,2311.33 2470.42,2312.33 2470,2313.5C 2467.53,2345.81 2465.87,2378.14 2465,2410.5C 2465.36,2414.26 2466.86,2417.42 2469.5,2420C 2474.72,2421.23 2480.05,2421.9 2485.5,2422C 2488.17,2424 2488.17,2426 2485.5,2428C 2468.83,2427.42 2452.16,2427.42 2435.5,2428C 2432.83,2426 2432.83,2424 2435.5,2422C 2446.32,2424.36 2452.49,2420.19 2454,2409.5C 2456.64,2371.85 2459.14,2334.18 2461.5,2296.5C 2461.65,2293.75 2460.98,2291.25 2459.5,2289C 2453.94,2287.21 2448.27,2285.88 2442.5,2285C 2441.24,2282.92 2441.58,2281.09 2443.5,2279.5 Z"/></g>
<g><path style="opacity:1" fill="#f9f9f9" d="M 2308.5,2317.5 C 2311.48,2317.24 2313.31,2318.57 2314,2321.5C 2319.27,2335.14 2324.43,2348.81 2329.5,2362.5C 2328.97,2363.19 2328.31,2363.69 2327.5,2364C 2316.51,2364.5 2305.51,2364.67 2294.5,2364.5C 2298.7,2348.71 2303.36,2333.05 2308.5,2317.5 Z"/></g>
</svg>
