<?xml version="1.0" encoding="UTF-8"?>
<svg id="svg13" width="1950" height="1300" version="1.1" xmlns="http://www.w3.org/2000/svg" xmlns:xlink="http://www.w3.org/1999/xlink">
 <desc id="desc1">Bandeira do Piauí</desc>
 <defs id="defs5">
  <g id="star" transform="scale(200)">
   <g id="cone">
    <polygon id="triangle" transform="translate(0,-1) rotate(18)" points="0 0 0 1 0.5 1" fill="#ffffff"/>
    <use id="use1" transform="scale(-1,1)" xlink:href="#triangle"/>
   </g>
   <use id="use2" transform="rotate(72)" xlink:href="#cone"/>
   <use id="use3" transform="rotate(-72)" xlink:href="#cone"/>
   <use id="use4" transform="rotate(144)" xlink:href="#cone"/>
   <use id="use5" transform="rotate(216)" xlink:href="#cone"/>
  </g>
  <rect id="stripe" width="100%" height="100" fill="#56A134"/>
 </defs>
 <rect id="rect5" width="100%" height="1300" fill="#FFD500"/>
 <use id="use6" xlink:href="#stripe"/>
 <use id="use7" y="200" xlink:href="#stripe"/>
 <use id="use8" y="400" xlink:href="#stripe"/>
 <use id="use9" y="600" xlink:href="#stripe"/>
 <use id="use10" y="800" xlink:href="#stripe"/>
 <use id="use11" y="1000" xlink:href="#stripe"/>
 <use id="use12" y="1200" xlink:href="#stripe"/>
 <rect id="rect12" width="750" height="500" fill="#0B1097"/>
 <path id="text12" d="m82.365 418.077h3.93218v39.3218h-4.86841v-33.5795q-1.49797 1.0298-3.15199 1.5916-1.6228 0.5305-3.27681 0.5929v-4.7436q1.96609-0.2808 3.80735-1.0298 1.87246-0.749 3.55768-2.1534zm28.8048 40.0708q-2.9336 0-5.6798-0.8114-2.7151-0.8426-4.8997-2.4342-2.15329-1.6228-3.4016-3.9946t-1.24831-5.4926h4.99321q0.062 2.6839 1.4356 4.5252 1.3731 1.8412 3.6513 2.7774 2.3094 0.9363 5.1493 0.9363 4.3691 0 6.7721-2.1222 2.403-2.1221 2.403-5.3053 0-2.0285-0.9987-3.5889-0.9986-1.5603-3.1832-2.4342-2.1533-0.905-5.6798-0.905h-4.4315v-3.8697h2.9959q4.5564 0 7.1778-1.8101 2.6215-1.81 2.6215-4.9932 0-2.8087-2.1221-4.7436-2.1222-1.9349-6.0544-1.9349-3.0271 0-5.3989 1.2483-2.3718 1.2171-3.2144 4.4939h-4.99323q0.49932-3.6513 2.37179-5.8982 1.87244-2.247 4.74354-3.2456 2.8711-1.0299 6.3664-1.0299 3.901 0 6.9593 1.3731 3.0584 1.3732 4.806 3.7762 1.7789 2.403 1.7789 5.5238 0 3.0895-1.7789 5.3053-1.7476 2.1845-5.0868 3.3704 3.7137 1.0611 6.0543 3.4953 2.3718 2.4342 2.3718 6.2415 0 3.3705-1.7789 5.9919-1.7476 2.5903-4.9932 4.0882-3.2456 1.4668-7.7083 1.4668zm39.4465-39.9459h11.4845q5.9294 0 10.2985 2.4342 4.3691 2.403 6.7721 6.8033t2.403 10.3609q0 5.8983-2.403 10.2986t-6.7721 6.8657q-4.3691 2.4342-10.2985 2.4342h-11.4845zm4.8684 4.3066v30.6461h6.6161q4.4315 0 7.6147-1.9973 3.2144-1.9973 4.9308-5.4614 1.7476-3.4953 1.7476-7.8956 0-4.4315-1.7476-7.8643-1.7164-3.4641-4.9308-5.4302-3.1832-1.9973-7.6147-1.9973zm36.2634 34.8903v-39.1969h24.1548v4.1818h-19.2864v13.1697h18.1629v4.1818h-18.1629v13.4194h19.2864v4.2442zm49.9636-39.1969h6.9905l13.4818 27.0883h-0.4993l13.4817-27.0883h6.8033v39.1969h-4.9308v-34.1413h0.8738l-14.3556 29.2105h-3.2456l-14.2931-29.0232h0.5617v33.954h-4.8684zm48.1848 39.1969 13.4817-39.1969h5.9295l13.1697 39.1969h-5.1181l-3.308-10.0489h-15.6039l-3.4329 10.0489zm9.7992-13.8562h13.1073l-6.5537-19.4113zm30.7396 13.8562v-39.1969h13.669q6.7097 0 10.1425 3.2144 3.4641 3.1832 3.4641 8.3949 0 5.1492-3.4641 8.3636-3.4328 3.1832-10.1425 3.1832h-8.8006v16.0408zm21.9702 0-11.2347-17.7884h5.3053l12.2334 17.7884zm-17.1018-19.4736h8.4261q4.4003 0 6.6785-2.1534 2.3093-2.1845 2.3093-5.6486 0-3.5577-2.2157-5.6486-2.1846-2.0909-6.3976-2.0909h-8.8006zm46.9676 20.2226q-5.1805 0-8.9254-2.5903-3.7449-2.6214-5.7734-7.2401-2.0286-4.65-2.0286-10.7667 0-6.5224 2.1846-10.9852 2.2157-4.4627 5.9919-6.7408 3.8073-2.3094 8.5509-2.3094 6.2728 0 10.0801 3.152 3.8386 3.1208 5.2741 8.1452l-5.2429 1.0611q-1.2171-3.6513-3.901-5.8047-2.6526-2.1845-6.2103-2.1845-3.0896 0-5.711 1.7788-2.5903 1.7477-4.1819 5.2429-1.5916 3.4953-1.5916 8.6446 0 4.6811 1.2484 8.3324 1.2795 3.6514 3.8073 5.7423 2.559 2.0909 6.4288 2.0909 4.65 0 7.365-2.4966 2.7463-2.4966 2.7463-6.5537h5.3053q0 4.2131-1.9349 7.2402-1.9348 2.996-5.4301 4.6188-3.4641 1.6228-8.0516 1.6228zm-5.8358 10.361 0.8426-2.0597q2.3093 1.2171 4.1506 1.3731 1.8412 0.1872 2.9335-0.4369 1.1235-0.6242 1.2171-1.7164 0.094-1.0923-0.8426-1.9037-0.905-0.8114-2.3406-1.3732-1.4355-0.5617-2.9647-0.905l2.2157-5.8358 2.7775 0.2496-2.0909 5.4614-1.1235-1.7789q2.8087 0.6242 4.7124 1.5292 1.9037 0.9051 2.8399 2.0909 0.9362 1.1859 0.8114 2.6839-0.1248 1.7789-1.5292 2.8399-1.3731 1.0923-3.4328 1.4044-2.0597 0.3433-4.2443-0.062-2.1845-0.4057-3.9321-1.5604zm44.3462-10.361q-4.8684 0-8.7069-2.247-3.8386-2.2469-6.0543-6.7408-2.2158-4.5252-2.2158-11.2972 0-6.8657 2.2158-11.3597 2.2157-4.5251 6.0543-6.7408 3.8385-2.247 8.7069-2.247t8.707 2.247q3.8386 2.2469 6.0543 6.772 2.2158 4.5252 2.2158 11.3285 0 6.8345-2.2158 11.3596-2.2157 4.4939-6.0543 6.7096-3.8386 2.2158-8.707 2.2158zm0-4.4939q5.5238 0 8.707-4.0258 3.2144-4.0258 3.2144-11.8278 0-7.6459-3.2144-11.7653-3.1832-4.1506-8.707-4.1506-5.4613 0-8.7069 4.1506-3.2144 4.1506-3.2144 11.8278 0 7.7707 3.2144 11.7965 3.2456 3.9946 8.7069 3.9946zm41.2566-35.452h11.4845q5.9295 0 10.2986 2.4342 4.369 2.403 6.772 6.8033t2.403 10.3609q0 5.8983-2.403 10.2986t-6.772 6.8657q-4.3691 2.4342-10.2986 2.4342h-11.4845zm4.8685 4.3066v30.6461h6.616q4.4315 0 7.6147-1.9973 3.2144-1.9973 4.9308-5.4614 1.7476-3.4953 1.7476-7.8956 0-4.4315-1.7476-7.8643-1.7164-3.4641-4.9308-5.4302-3.1832-1.9973-7.6147-1.9973zm36.2633 34.8903v-39.1969h24.1548v4.1818h-19.2863v13.1697h18.1629v4.1818h-18.1629v13.4194h19.2863v4.2442zm54.0206-39.3218h3.9322v39.3218h-4.8684v-33.5795q-1.498 1.0298-3.152 1.5916-1.6228 0.5305-3.2768 0.5929v-4.7436q1.9661-0.2808 3.8073-1.0298 1.8725-0.749 3.5577-2.1534zm29.4289 40.0708q-4.6187 0-8.1764-1.4668-3.5265-1.4667-5.555-4.0258-1.9973-2.559-1.9973-5.8046 0-2.9647 1.5292-5.0869 1.5604-2.1221 4.2443-3.2456 2.715-1.1547 6.1479-1.1547 0.905 0 1.7476 0.094t1.8101 0.3432v1.4356q-3.1208 0-5.4614 1.0299-2.3406 0.9986-3.6513 2.6526t-1.3107 3.5577q0 2.3094 1.4043 3.9322 1.4044 1.5916 3.8074 2.4342 2.4342 0.8114 5.4613 0.8114 5.0557 0 7.8644-1.6228t2.8087-4.2443q0-2.1221-1.498-3.4952-1.4668-1.3732-4.057-2.3094l-10.7979-4.1194q-1.9661-0.749-3.9946-2.0598-1.9973-1.3107-3.3704-3.2768t-1.3731-4.6499q0-3.0272 1.7164-5.3678 1.7164-2.3405 4.9308-3.6513 3.2456-1.3419 7.7707-1.3419 4.1507 0 7.3651 1.4356 3.2456 1.4043 5.0868 3.8697 1.8413 2.4342 1.8413 5.555 0 2.4342-1.2483 4.5251-1.2171 2.0597-3.6201 3.3393-2.3718 1.2483-5.8671 1.2483-0.8426 0-1.6228-0.094-0.749-0.1248-1.6852-0.4057v-1.5603q2.5278 0 4.5563-0.8427 2.0285-0.8738 3.2144-2.403 1.2171-1.5291 1.2171-3.5576 0-1.9349-1.1859-3.4329-1.1547-1.5292-3.2456-2.3718-2.0597-0.8738-4.806-0.8738-2.6526 0-4.7748 0.8426-2.0909 0.8114-3.308 2.2158-1.2171 1.3731-1.2171 3.0583 0 2.0909 1.4044 3.3705 1.4355 1.2483 3.9634 2.1845l10.7978 4.1194q4.3067 1.6228 6.6161 3.8386 2.3094 2.2157 2.3094 6.0231 0 3.0895-1.8725 5.4925-1.8725 2.3718-5.3989 3.7138-3.5265 1.3419-8.5198 1.3419zm23.1874-0.749v-5.8046q0-3.4017 1.0923-5.6798 1.1235-2.2782 3.1208-3.7762 2.0285-1.498 4.7747-2.5902l7.7396-3.0584q2.9959-1.2171 4.4939-3.1208 1.498-1.9036 1.498-4.7435 0-2.996-2.091-4.8997-2.0597-1.9036-5.7734-1.9036-3.6825 0-6.0543 1.5916-2.3406 1.5604-2.6839 4.7123h-5.4301q0.2184-3.4016 1.9973-5.7734 1.81-2.3718 4.8996-3.5889 3.0896-1.2483 7.209-1.2483 3.7761 0 6.7721 1.4668 2.9959 1.4667 4.7123 4.057 1.7477 2.559 1.7477 5.8982 0 3.0272-1.1235 5.2741-1.1235 2.247-3.2144 3.8698-2.0597 1.6228-4.8996 2.7775l-7.9268 3.1832q-2.9959 1.1547-4.4939 2.7775t-1.498 4.213v1.8725h22.7817v4.4939zm50.7126 0.749q-2.9335 0-5.6798-0.8114-2.7151-0.8426-4.8996-2.4342-2.1533-1.6228-3.4017-3.9946-1.2483-2.3718-1.2483-5.4926h4.9933q0.062 2.6839 1.4355 4.5252 1.3732 1.8412 3.6513 2.7774 2.3094 0.9363 5.1493 0.9363 4.3691 0 6.7721-2.1222 2.403-2.1221 2.403-5.3053 0-2.0285-0.9986-3.5889-0.9987-1.5603-3.1832-2.4342-2.1534-0.905-5.6799-0.905h-4.4315v-3.8697h2.996q4.5563 0 7.1778-1.8101 2.6214-1.81 2.6214-4.9932 0-2.8087-2.1221-4.7436t-6.0543-1.9349q-3.0272 0-5.3989 1.2483-2.3718 1.2171-3.2144 4.4939h-4.9933q0.4993-3.6513 2.3718-5.8982 1.8725-2.247 4.7436-3.2456 2.8711-1.0299 6.3664-1.0299 3.9009 0 6.9593 1.3731 3.0584 1.3732 4.806 3.7762 1.7788 2.403 1.7788 5.5238 0 3.0895-1.7788 5.3053-1.7476 2.1845-5.0869 3.3704 3.7137 1.0611 6.0543 3.4953 2.3718 2.4342 2.3718 6.2415 0 3.3705-1.7788 5.9919-1.7477 2.5903-4.9933 4.0882-3.2456 1.4668-7.7083 1.4668z" style="fill:#ffffff;stroke-width:1.01764" aria-label="13 DE MARÇO DE 1823"/>
 <use id="use13" x="375" y="225" xlink:href="#star"/>
</svg>
