<svg xmlns="http://www.w3.org/2000/svg" height="700" width="1000" version="1.0">
  <path style="fill:#00923f;fill-opacity:1;stroke:none;stroke-opacity:1" d="M0 0h1000v175H0zM0 350h1000v175H0z"/>
  <path style="fill:#f8c300;fill-opacity:1;stroke:none;stroke-opacity:1" d="M0 175h1000v175H0zM0 525h1000v175H0z"/>
  <path style="fill:#28166f;fill-opacity:1;stroke:none;stroke-opacity:1" d="M0 0h350v350H0z"/>
  <path style="fill:#fff;fill-opacity:1;stroke:none;stroke-opacity:1" d="M222.02282 239.72136 175 205.55728l-47.02282 34.16408 17.96112-55.27864-47.022821-34.16408h58.123401L175 95l17.96112 55.27864h58.1234l-47.02282 34.16408 17.96112 55.27864zM83.51141 322.36068 60 305.27864l-23.51141 17.08204 8.980559-27.63932-23.51141-17.08204H51.01944L60 250l8.98056 27.63932h29.061701l-23.51141 17.08204 8.980559 27.63932zM313.51141 92.36068 290 75.278641 266.48859 92.36068l8.98056-27.63932-23.51141-17.08204h29.0617L290 20l8.98056 27.63932h29.0617l-23.51141 17.08204 8.98056 27.63932zM83.51141 92.36068 60 75.278641 36.48859 92.36068l8.980559-27.63932-23.51141-17.08204H51.01944L60 20l8.98056 27.63932h29.061701l-23.51141 17.08204 8.980559 27.63932zM313.51141 322.36068 290 305.27864l-23.51141 17.08204 8.98056-27.63932-23.51141-17.08204h29.0617L290 250l8.98056 27.63932h29.0617l-23.51141 17.08204 8.98056 27.63932z"/>
</svg>
